# xmcd CD database file
#
# Track frame offsets:
#	150
#	9219
#	26235
#	46487
#	64967
#	77262
#	105580
#	124161
#	139087
#	157457
#	173169
#	187216
#	207935
#	222620
#
# Disc length: 3300 seconds
#
# Revision: 0
# Processed by: cddbd v1.5.2PL0 Copyright (c) Steve Scherf et al.
# Submitted via: CDex 1.74
#
DISCID=cf0ce20e
DTITLE=Chris Kramer and Beatbox 'n' Blues - On The Way to Memphis
DYEAR=2017
DGENRE=Blues
TTITLE0=Harp Boogie
TTITLE1=BO
TTITLE2=Have a good Time
TTITLE3=Came to the City
TTITLE4=In the beginning there was rhythm
TTITLE5=Unknown Master of the Blues
TTITLE6=I always wanted to sound like James Brown
TTITLE7=Wait until tomorrow
TTITLE8=I am different
TTITLE9=Now I'm found
TTITLE10=Homesick James
TTITLE11=Ich gab dir meine Liebe
TTITLE12=Slippin' through my hands
TTITLE13=Benedicita
EXTD=YEAR: 2017
EXTT0=
EXTT1=
EXTT2=
EXTT3=
EXTT4=
EXTT5=
EXTT6=
EXTT7=
EXTT8=
EXTT9=
EXTT10=
EXTT11=
EXTT12=
EXTT13=
PLAYORDER=
